<?xml version="1.0" encoding="UTF-8" standalone="no"?>
<svg
   width="1200"
   height="630"
   viewBox="0 0 1200 630"
   version="1.1"
   id="svg4"
   xmlns="http://www.w3.org/2000/svg"
   xmlns:svg="http://www.w3.org/2000/svg">
  <defs
     id="defs4" />
  <rect
     width="1200"
     height="630"
     fill="#F7F7F3"
     id="rect1" />
  <g
     transform="translate(72 92) scale(.62)"
     id="g2">
    <path
       d="m 11.015625,278 h 46.816406 v -66.09375 c 0,-12.62207 -1.147461,-40.96436 -1.606445,-65.29053 5.622559,25.1294 12.62207,51.86524 16.75293,65.29053 L 93.173828,278 h 38.554692 l 19.85107,-66.09375 c 4.24561,-13.88428 11.47461,-42.11182 16.98242,-68.15918 -0.45898,24.8999 -1.72119,55.07813 -1.72119,68.15918 V 278 h 46.81641 V 107.02832 H 140.33447 L 125.18799,160.5 c -3.55713,12.50732 -8.7207,38.78418 -12.73682,61.15967 C 108.5498,199.28418 103.15674,173.00732 99.599609,160.5 L 84.223633,107.02832 H 11.015625 Z m 277.865235,2.29492 c 32.70264,0 54.2749,-14.45801 60.81543,-37.52197 l -40.62012,-5.9668 c -2.7539,7.11426 -9.86816,11.13037 -19.27734,11.13037 -12.73682,0 -21.22803,-7.57324 -21.80176,-23.4082 h 83.53516 v -10.55664 c 0,-40.84961 -25.01465,-65.86426 -63.79883,-65.86426 -39.70215,0 -64.94629,26.3916 -64.94629,66.09375 0,41.53809 24.8999,66.09375 66.09375,66.09375 z m -20.53955,-81.01074 c 1.37695,-12.16309 8.14697,-18.81836 19.85107,-18.81836 11.7041,0 18.47412,6.65527 19.85108,18.81836 z M 435.93555,149.71387 H 413.9043 v -30.52246 h -46.12793 v 30.52246 h -16.29395 v 33.50586 h 16.29395 v 57.83203 c 0,25.58838 14.6875,38.89892 43.48877,38.89892 8.26172,0 17.55615,-0.80322 28.11279,-3.67187 l -5.50781,-32.93213 c -1.72119,0.57373 -8.49121,1.4917 -11.24512,1.4917 -6.08154,0 -8.7207,-2.63916 -8.7207,-8.03223 v -53.58642 h 22.03125 z M 446.90137,278 h 46.12793 v -36.48926 l 6.88476,-8.7207 L 526.07617,278 h 52.55371 l -44.75097,-72.06055 43.60351,-56.22558 h -51.86523 l -30.98145,43.14453 h -1.60644 v -85.83008 h -46.12793 z m 169.31543,2.06543 c 16.63818,0 29.1455,-5.73731 36.94824,-20.19531 h 0.91797 V 278 h 43.14453 v -87.89551 c 0,-23.63769 -23.4082,-41.99707 -59.89746,-41.99707 -36.03028,0 -55.65186,17.55615 -59.20899,39.01367 l 41.53809,4.13086 c 1.4917,-7.80273 8.26172,-11.47461 16.98242,-11.47461 8.83545,0 14.45801,3.78662 14.45801,10.32715 v 0.45899 c 0,7.45849 -8.14697,9.75341 -29.60449,11.24511 -26.50635,1.95069 -47.0459,12.73682 -47.0459,40.84961 0,25.47364 17.09717,37.40723 41.76758,37.40723 z m 14.91699,-29.14551 c -7.80274,0 -13.31055,-3.78662 -13.31055,-11.01562 0,-6.54053 4.58985,-11.58936 15.37598,-13.31055 7.229,-1.14746 13.42529,-2.63916 18.35937,-4.58984 v 10.55664 c 0,11.7041 -9.98291,18.35937 -20.4248,18.35937 z"
       id="text1"
       style="font-weight:900;font-size:235px;font-family:Inter;letter-spacing:-9;fill:#111111"
       aria-label="Metka" />
    <path
       d="M850 84 H1520 Q1550 84 1568 112 L1620 196 Q1628 210 1620 224 L1568 308 Q1550 336 1520 336 H850 Q820 336 802 308 L750 224 Q742 210 750 196 L802 112 Q820 84 850 84 Z"
       fill="#FFC400"
       id="path1" />
    <path
       d="m 820.625,233.00781 105.66406,42.1875 v -35.74219 l -66.01562,-22.85156 v -1.36719 l 66.01562,-22.85156 v -35.9375 L 820.625,198.82812 Z m 177.15625,85.15625 c 34.47265,0 57.42185,-16.5039 57.42185,-47.26562 V 165.82031 h -38.8672 v 19.14063 h -0.7812 c -4.2969,-11.13282 -14.9414,-20.50782 -31.0547,-20.50782 -21.67969,0 -42.77344,16.50391 -42.77344,56.05469 0,37.69531 19.72656,53.125 42.96875,53.125 14.7461,0 24.80469,-6.34765 29.00389,-17.38281 h 2.832 v 18.55469 c 0,11.42578 -6.25,16.99218 -18.94526,16.99218 -10.0586,0 -16.69922,-3.51562 -17.8711,-9.375 L 945.24219,287.5 c 3.125,18.75 22.65625,30.66406 52.53906,30.66406 z m 1.36719,-72.46094 c -10.74219,0 -16.99219,-9.08203 -16.99219,-25.19531 0,-16.21094 6.25,-25.97656 16.99219,-25.97656 10.83986,0 17.38276,9.76562 17.38276,25.97656 0,15.82031 -6.5429,25.19531 -17.38276,25.19531 z M 1067.125,275 h 39.2578 v -56.83594 c 0,-12.5 8.4961,-20.70312 20.1172,-20.70312 4.0039,0 10.5469,0.58593 14.4531,1.95312 v -33.39844 c -3.125,-0.97656 -6.5429,-1.5625 -9.9609,-1.5625 -11.6211,0 -20.7031,6.83594 -24.6094,22.26563 h -1.1719 v -20.89844 h -38.0859 z m 104.1094,1.75781 c 14.1601,0 24.8047,-4.88281 31.4453,-17.1875 h 0.7812 V 275 h 36.7188 v -74.80469 c 0,-20.11719 -19.9219,-35.74219 -50.9766,-35.74219 -30.664,0 -47.3633,14.94141 -50.3906,33.20313 l 35.3516,3.51562 c 1.2695,-6.64062 7.0312,-9.76562 14.4531,-9.76562 7.5195,0 12.3047,3.22266 12.3047,8.78906 v 0.39063 c 0,6.34765 -6.9336,8.30078 -25.1953,9.57031 -22.5586,1.66016 -40.0391,10.83984 -40.0391,34.76562 0,21.67969 14.5508,31.83594 35.5469,31.83594 z m 12.6953,-24.80469 c -6.6406,0 -11.3281,-3.22265 -11.3281,-9.375 0,-5.5664 3.9062,-9.86328 13.0859,-11.32812 6.1523,-0.97656 11.4258,-2.24609 15.625,-3.90625 v 8.98437 c 0,9.96094 -8.4961,15.625 -17.3828,15.625 z M 1252.1016,275 h 39.2578 v -63.67188 c 0,-9.47265 4.8828,-15.23437 13.0859,-15.23437 8.0078,0 13.2813,5.76172 13.2813,15.23437 V 275 h 37.5 v -63.67188 c 0,-9.47265 4.9804,-15.23437 13.0859,-15.23437 8.1055,0 13.2813,5.76172 13.2813,15.23437 V 275 h 39.2578 v -73.63281 c 0,-22.36328 -14.3555,-36.91407 -35.1563,-36.91407 -14.5508,0 -28.8086,7.12891 -35.7422,26.36719 -5.957,-19.23828 -14.5508,-26.36719 -28.3203,-26.36719 -13.2812,0 -25.5859,6.73829 -31.7383,23.73047 l -1.9531,-22.36328 h -35.8398 z m 293.7578,-41.99219 v -34.17969 l -105.6641,-42.38281 v 35.9375 l 66.211,22.85156 v 1.36719 l -66.211,22.85156 v 35.74219 z"
       id="text2"
       style="font-weight:900;font-size:200px;font-family:Inter;letter-spacing:-8;fill:#111111"
       aria-label="&lt;gram&gt;" />
  </g>
  <path
     d="m 96.632812,450.46875 c 8.765628,0 15.070318,-5.55469 15.070318,-14.71875 v -4.35938 H 97.171875 v 5.4375 h 7.593755 c -0.11719,4.47657 -3.11719,7.28907 -8.085943,7.28907 -5.601562,0 -9.210937,-4.19532 -9.210937,-11.60157 0,-7.40625 3.726562,-11.55468 9.117187,-11.55468 3.890623,0 6.515623,2.03906 7.500003,5.36718 h 7.26562 c -0.98437,-6.89062 -7.03125,-11.71875 -14.88281,-11.71875 -9.1875,0 -16.265625,6.65625 -16.265625,17.97657 0,11.03906 6.632812,17.88281 16.429687,17.88281 z M 117.02344,450 h 7.03125 v -14.90625 c 0,-3.25781 2.36719,-5.48438 5.60156,-5.48438 1.03125,0 2.41406,0.16407 3.04687,0.35157 v -6.28125 c -0.63281,-0.14063 -1.54687,-0.23438 -2.27343,-0.23438 -2.95313,0 -5.36719,1.6875 -6.32813,4.92188 h -0.28125 v -4.57032 h -6.79687 z m 26.20312,0.51562 c 3.86719,0 6.39844,-1.71093 7.66406,-4.14843 H 151.125 V 450 h 6.65625 v -17.64844 c 0,-6.35156 -5.48438,-8.88281 -11.10938,-8.88281 -5.85937,0 -10.07812,2.60156 -11.41406,7.14844 l 6.44531,1.07812 c 0.5625,-1.6875 2.22657,-3.02344 4.94532,-3.02344 2.625,0 4.10156,1.26563 4.10156,3.49219 v 0.11719 c 0,1.71094 -1.85156,1.89844 -6.35156,2.34375 -5.15625,0.49219 -9.89063,2.17969 -9.89063,8.03906 0,5.17969 3.72656,7.85156 8.71875,7.85156 z m 1.99219,-4.94531 c -2.32031,0 -3.96094,-1.05469 -3.96094,-3.09375 0,-2.10937 1.73438,-3.11719 4.33594,-3.49219 1.54687,-0.21093 4.33594,-0.58593 5.20312,-1.19531 v 2.83594 c 0,2.76562 -2.29687,4.94531 -5.57812,4.94531 z M 163.78125,450 h 7.03125 v -15.84375 c 0,-3.14063 1.89844,-4.875 4.38281,-4.875 2.39063,0 4.07813,1.64062 4.07813,4.19531 V 450 h 6.79687 v -16.125 c 0,-2.74219 1.64063,-4.59375 4.3125,-4.59375 2.36719,0 4.17188,1.42969 4.17188,4.38281 V 450 h 7.03125 v -17.67188 c 0,-5.69531 -3.5625,-8.92968 -8.36719,-8.92968 -3.60938,0 -6.9375,1.85156 -8.41406,5.88281 -1.21875,-3.98438 -3.39844,-5.88281 -6.75,-5.88281 -3.14063,0 -6.07032,1.66406 -7.47657,5.48437 l -0.28125,-5.08594 h -6.51562 z m 43.80469,0 h 7.03125 v -15.84375 c 0,-3.14063 1.89843,-4.875 4.38281,-4.875 2.39062,0 4.07812,1.64062 4.07812,4.19531 V 450 h 6.79688 v -16.125 c 0,-2.74219 1.64062,-4.59375 4.3125,-4.59375 2.36719,0 4.17187,1.42969 4.17187,4.38281 V 450 h 7.03125 v -17.67188 c 0,-5.69531 -3.5625,-8.92968 -8.36718,-8.92968 -3.60938,0 -6.9375,1.85156 -8.41407,5.88281 -1.21875,-3.98438 -3.39843,-5.88281 -6.75,-5.88281 -3.14062,0 -6.07031,1.66406 -7.47656,5.48437 l -0.28125,-5.08594 h -6.51562 z m 51.11718,0.51562 c 3.86719,0 6.39844,-1.71093 7.66407,-4.14843 h 0.23437 V 450 h 6.65625 v -17.64844 c 0,-6.35156 -5.48437,-8.88281 -11.10937,-8.88281 -5.85938,0 -10.07813,2.60156 -11.41407,7.14844 l 6.44532,1.07812 c 0.5625,-1.6875 2.22656,-3.02344 4.94531,-3.02344 2.625,0 4.10156,1.26563 4.10156,3.49219 v 0.11719 c 0,1.71094 -1.85156,1.89844 -6.35156,2.34375 -5.15625,0.49219 -9.89063,2.17969 -9.89063,8.03906 0,5.17969 3.72657,7.85156 8.71875,7.85156 z m 1.99219,-4.94531 c -2.32031,0 -3.96094,-1.05469 -3.96094,-3.09375 0,-2.10937 1.73438,-3.11719 4.33594,-3.49219 1.54688,-0.21093 4.33594,-0.58593 5.20313,-1.19531 v 2.83594 c 0,2.76562 -2.29688,4.94531 -5.57813,4.94531 z M 279.25781,450 h 7.03125 v -14.90625 c 0,-3.25781 2.36719,-5.48438 5.60156,-5.48438 1.03125,0 2.41407,0.16407 3.04688,0.35157 v -6.28125 c -0.63281,-0.14063 -1.54688,-0.23438 -2.27344,-0.23438 -2.95312,0 -5.36719,1.6875 -6.32812,4.92188 h -0.28125 v -4.57032 h -6.79688 z m 30.91406,0 h 7.03125 v -15.84375 c 0,-3.14063 1.89844,-4.875 4.38282,-4.875 2.39062,0 4.07812,1.64062 4.07812,4.19531 V 450 h 6.79688 v -16.125 c 0,-2.74219 1.64062,-4.59375 4.3125,-4.59375 2.36718,0 4.17187,1.42969 4.17187,4.38281 V 450 h 7.03125 v -17.67188 c 0,-5.69531 -3.5625,-8.92968 -8.36719,-8.92968 -3.60937,0 -6.9375,1.85156 -8.41406,5.88281 -1.21875,-3.98438 -3.39844,-5.88281 -6.75,-5.88281 -3.14062,0 -6.07031,1.66406 -7.47656,5.48437 l -0.28125,-5.08594 h -6.51563 z m 51.11719,0.51562 c 3.86719,0 6.39844,-1.71093 7.66406,-4.14843 h 0.23438 V 450 h 6.65625 v -17.64844 c 0,-6.35156 -5.48438,-8.88281 -11.10938,-8.88281 -5.85937,0 -10.07812,2.60156 -11.41406,7.14844 l 6.44531,1.07812 c 0.5625,-1.6875 2.22657,-3.02344 4.94532,-3.02344 2.625,0 4.10156,1.26563 4.10156,3.49219 v 0.11719 c 0,1.71094 -1.85156,1.89844 -6.35156,2.34375 -5.15625,0.49219 -9.89063,2.17969 -9.89063,8.03906 0,5.17969 3.72656,7.85156 8.71875,7.85156 z m 1.99219,-4.94531 c -2.32031,0 -3.96094,-1.05469 -3.96094,-3.09375 0,-2.10937 1.73438,-3.11719 4.33594,-3.49219 1.54687,-0.21093 4.33594,-0.58593 5.20312,-1.19531 v 2.83594 c 0,2.76562 -2.29687,4.94531 -5.57812,4.94531 z M 381.84375,450 h 7.03125 v -14.90625 c 0,-3.25781 2.36719,-5.48438 5.60156,-5.48438 1.03125,0 2.41406,0.16407 3.04688,0.35157 v -6.28125 c -0.63282,-0.14063 -1.54688,-0.23438 -2.27344,-0.23438 -2.95313,0 -5.36719,1.6875 -6.32813,4.92188 h -0.28125 v -4.57032 h -6.79687 z m 20.29687,0 h 7.03125 v -8.41406 L 411.1875,439.3125 418.5,450 h 8.27344 l -10.28907,-14.83594 9.79688,-11.36719 h -8.13281 l -8.57813,10.07813 h -0.39844 v -18.79688 h -7.03125 z m 36.86719,0.32812 c 3.98438,0 6.65625,-2.0625 8.13281,-5.76562 l 0.0937,5.4375 h 6.65625 v -26.20313 h -7.05468 v 15.16407 c 0,3.46875 -2.10938,5.48437 -5.08594,5.48437 -2.95313,0 -4.73438,-1.94531 -4.73438,-5.20312 v -15.44532 h -7.03125 v 16.66407 c 0,6.14062 3.58594,9.86718 9.02344,9.86718 z m 20.85938,9.46875 h 7.03125 v -13.99218 h 0.21093 c 0.98438,2.10937 3.14063,4.64062 7.42969,4.64062 6.04688,0 10.66406,-4.78125 10.66406,-13.5 0,-8.95312 -4.80468,-13.47656 -10.61718,-13.47656 -4.45313,0 -6.51563,2.64844 -7.47657,4.73437 h -0.32812 v -4.40625 h -6.91406 z m 12.51562,-15 c -3.58594,0 -5.64844,-3.14062 -5.64844,-7.875 0,-4.75781 2.03907,-7.82812 5.64844,-7.82812 3.67969,0 5.625,3.23437 5.625,7.82812 0,4.61719 -1.96875,7.875 -5.625,7.875 z m 39.67969,5.71875 c 3.02344,0 6.39844,-0.91406 8.92969,-2.88281 L 523.125,450 h 7.40625 l -5.22656,-6.02344 c 1.89843,-2.50781 3.14062,-6.14062 3.14062,-10.89844 h -5.88281 c 0,2.27344 -0.5625,4.33594 -1.47656,6.04688 l -5.88282,-6.77344 2.08594,-1.5 c 2.85938,-2.08594 4.64063,-4.73437 4.64063,-7.96875 0,-4.52344 -3.44532,-8.22656 -9.02344,-8.22656 -5.69531,0 -9.44531,3.84375 -9.44531,8.83594 0,3.16406 1.47656,5.71875 3.35156,8.08593 -3.84375,2.625 -6.42188,5.0625 -6.42188,9.21094 0,5.41406 4.42969,9.72656 11.67188,9.72656 z m 5.13281,-7.14843 c -1.52344,0.96093 -3.23437,1.47656 -4.92187,1.47656 -3,0 -5.01563,-1.6875 -5.01563,-4.33594 0,-1.85156 0.98438,-3.11719 2.90625,-4.52344 l 0.28125,-0.1875 z m -5.4375,-15.04688 c -1.38281,-1.73437 -2.22656,-3.1875 -2.22656,-4.75781 0,-1.94531 1.33594,-3.23438 3.42187,-3.23438 2.08594,0 3.25782,1.26563 3.25782,2.88282 0,1.59375 -1.125,2.88281 -2.57813,3.84375 z M 545.10937,450 h 7.03125 v -14.90625 c 0,-3.25781 2.36719,-5.48438 5.60157,-5.48438 1.03125,0 2.41406,0.16407 3.04687,0.35157 v -6.28125 c -0.63281,-0.14063 -1.54687,-0.23438 -2.27344,-0.23438 -2.95312,0 -5.36718,1.6875 -6.32812,4.92188 h -0.28125 v -4.57032 h -6.79688 z m 30.21094,0.51562 c 6.09375,0 10.26563,-2.83593 11.55469,-7.19531 L 580.5,442.125 c -0.75,2.01562 -2.60156,3.09375 -5.0625,3.09375 -3.53906,0 -5.92969,-2.20313 -6.09375,-6.49219 h 17.92969 v -1.96875 c 0,-8.95312 -5.46094,-13.28906 -12.30469,-13.28906 -7.66406,0 -12.58594,5.48437 -12.58594,13.57031 0,8.27344 4.92188,13.47656 12.9375,13.47656 z m -5.92969,-16.19531 c 0.28125,-3.23437 2.29688,-5.55469 5.64844,-5.55469 3.25781,0 5.10938,2.13282 5.46094,5.55469 z m 31.71094,16.00781 c 3.98438,0 6.65625,-2.0625 8.13281,-5.76562 l 0.0937,5.4375 h 6.65625 v -26.20313 h -7.05468 v 15.16407 c 0,3.46875 -2.10938,5.48437 -5.08594,5.48437 -2.95313,0 -4.73438,-1.94531 -4.73438,-5.20312 v -15.44532 h -7.03125 v 16.66407 c 0,6.14062 3.58594,9.86718 9.02344,9.86718 z m 31.26563,0.1875 c 6.86718,0 11.71875,-3.44531 11.71875,-8.60156 0,-3.72656 -2.4375,-6.04687 -7.5,-7.07812 l -4.71094,-0.9375 c -2.48438,-0.51563 -3.375,-1.42969 -3.375,-2.74219 0,-1.57031 1.78125,-2.64844 4.07812,-2.64844 2.55469,0 4.03125,1.26563 4.59375,3.04688 l 6.23438,-1.10157 c -0.98438,-4.26562 -4.71094,-6.98437 -10.92188,-6.98437 -6.63281,0 -11.01562,3.09375 -11.01562,8.13281 0,3.91406 2.48437,6.39844 7.54687,7.42969 l 4.52344,0.9375 c 2.29688,0.46875 3.375,1.3125 3.375,2.69531 0,1.57031 -1.66406,2.69531 -4.33594,2.69531 -2.88281,0 -4.57031,-1.19531 -5.25,-3.65625 l -6.53906,1.125 c 0.91406,4.875 5.25,7.6875 11.57813,7.6875 z m 23.78906,0 c 3.86719,0 6.39844,-1.71093 7.66406,-4.14843 h 0.23438 V 450 h 6.65625 v -17.64844 c 0,-6.35156 -5.48438,-8.88281 -11.10938,-8.88281 -5.85937,0 -10.07812,2.60156 -11.41406,7.14844 l 6.44531,1.07812 c 0.5625,-1.6875 2.22656,-3.02344 4.94531,-3.02344 2.625,0 4.10157,1.26563 4.10157,3.49219 v 0.11719 c 0,1.71094 -1.85157,1.89844 -6.35157,2.34375 -5.15625,0.49219 -9.89062,2.17969 -9.89062,8.03906 0,5.17969 3.72656,7.85156 8.71875,7.85156 z m 1.99219,-4.94531 c -2.32032,0 -3.96094,-1.05469 -3.96094,-3.09375 0,-2.10937 1.73437,-3.11719 4.33594,-3.49219 1.54687,-0.21093 4.33593,-0.58593 5.20312,-1.19531 v 2.83594 c 0,2.76562 -2.29687,4.94531 -5.57812,4.94531 z m 33.23437,4.875 c 6.04688,0 10.66406,-4.78125 10.66406,-13.5 0,-8.95312 -4.80468,-13.47656 -10.61718,-13.47656 -4.45313,0 -6.51563,2.64844 -7.47657,4.73437 h -0.21093 v -13.125 h -7.03125 V 450 h 6.91406 v -4.19531 h 0.32812 c 0.98438,2.10937 3.14063,4.64062 7.42969,4.64062 z m -2.15625,-5.64844 c -3.58594,0 -5.64844,-3.14062 -5.64844,-7.875 0,-4.75781 2.03907,-7.82812 5.64844,-7.82812 3.67969,0 5.625,3.23437 5.625,7.82812 0,4.61719 -1.96875,7.875 -5.625,7.875 z M 714,415.07812 h -7.03125 V 450 H 714 Z m 17.8125,35.4375 c 6.09375,0 10.26562,-2.83593 11.55469,-7.19531 l -6.375,-1.19531 c -0.75,2.01562 -2.60157,3.09375 -5.0625,3.09375 -3.53907,0 -5.92969,-2.20313 -6.09375,-6.49219 h 17.92968 v -1.96875 c 0,-8.95312 -5.46093,-13.28906 -12.30468,-13.28906 -7.66407,0 -12.58594,5.48437 -12.58594,13.57031 0,8.27344 4.92187,13.47656 12.9375,13.47656 z m -5.92969,-16.19531 c 0.28125,-3.23437 2.29688,-5.55469 5.64844,-5.55469 3.25781,0 5.10937,2.13282 5.46094,5.55469 z m 41.08594,-19.24219 H 759.9375 V 450 h 7.03125 z m 13.28906,35.4375 c 3.86719,0 6.39844,-1.71093 7.66406,-4.14843 h 0.23438 V 450 h 6.65625 v -17.64844 c 0,-6.35156 -5.48438,-8.88281 -11.10938,-8.88281 -5.85937,0 -10.07812,2.60156 -11.41406,7.14844 l 6.44531,1.07812 c 0.5625,-1.6875 2.22657,-3.02344 4.94532,-3.02344 2.625,0 4.10156,1.26563 4.10156,3.49219 v 0.11719 c 0,1.71094 -1.85156,1.89844 -6.35156,2.34375 -5.15625,0.49219 -9.89063,2.17969 -9.89063,8.03906 0,5.17969 3.72656,7.85156 8.71875,7.85156 z m 1.99219,-4.94531 c -2.32031,0 -3.96094,-1.05469 -3.96094,-3.09375 0,-2.10937 1.73438,-3.11719 4.33594,-3.49219 1.54687,-0.21093 4.33594,-0.58593 5.20312,-1.19531 v 2.83594 c 0,2.76562 -2.29687,4.94531 -5.57812,4.94531 z m 25.59375,-10.73437 c 0,-3.46875 2.08594,-5.48438 5.08594,-5.48438 2.95312,0 4.73437,1.94531 4.73437,5.20313 V 450 h 7.03125 v -16.66406 c 0,-6.14063 -3.5625,-9.86719 -9,-9.86719 -4.03125,0 -6.67969,2.08594 -8.15625,5.74219 l -0.0937,-5.41407 H 800.8125 V 450 h 7.03125 z m 34.5,25.52343 c 7.38281,0 12.67969,-3.46875 12.67969,-10.57031 v -25.99219 h -6.91407 v 4.40625 h -0.30468 c -0.96094,-2.08593 -3.11719,-4.73437 -7.52344,-4.73437 -5.8125,0 -10.6875,4.52344 -10.6875,13.38281 0,8.67188 4.75781,12.77344 10.66406,12.77344 4.24219,0 6.30469,-2.15625 7.26563,-4.26563 h 0.53906 v 4.82813 c 0,3.44531 -2.17969,5.0625 -5.76563,5.0625 -3.42187,0 -5.03906,-1.52344 -5.69531,-3 l -6.04687,1.6875 c 1.14843,3.75 5.22656,6.42187 11.78906,6.42187 z m 0.11719,-16.07812 c -3.65625,0 -5.64844,-2.90625 -5.64844,-7.47656 0,-4.5 1.94531,-7.71094 5.64844,-7.71094 3.60937,0 5.625,3.07031 5.625,7.71094 0,4.6875 -2.03907,7.47656 -5.625,7.47656 z m 27.58593,6.04687 c 3.98438,0 6.65625,-2.0625 8.13282,-5.76562 l 0.0937,5.4375 h 6.65625 V 423.79687 H 877.875 v 15.16407 c 0,3.46875 -2.10938,5.48437 -5.08594,5.48437 -2.95312,0 -4.73437,-1.94531 -4.73437,-5.20312 v -15.44532 h -7.03125 v 16.66407 c 0,6.14062 3.58593,9.86718 9.02343,9.86718 z m 28.17188,0.1875 c 3.86719,0 6.39844,-1.71093 7.66406,-4.14843 h 0.23438 V 450 h 6.65625 v -17.64844 c 0,-6.35156 -5.48438,-8.88281 -11.10938,-8.88281 -5.85937,0 -10.07812,2.60156 -11.41406,7.14844 l 6.44531,1.07812 c 0.5625,-1.6875 2.22656,-3.02344 4.94531,-3.02344 2.625,0 4.10157,1.26563 4.10157,3.49219 v 0.11719 c 0,1.71094 -1.85157,1.89844 -6.35157,2.34375 -5.15625,0.49219 -9.89062,2.17969 -9.89062,8.03906 0,5.17969 3.72656,7.85156 8.71875,7.85156 z m 1.99219,-4.94531 c -2.32032,0 -3.96094,-1.05469 -3.96094,-3.09375 0,-2.10937 1.73437,-3.11719 4.33594,-3.49219 1.54687,-0.21093 4.33593,-0.58593 5.20312,-1.19531 v 2.83594 c 0,2.76562 -2.29687,4.94531 -5.57812,4.94531 z m 30.21093,14.78906 c 7.38282,0 12.67969,-3.46875 12.67969,-10.57031 v -25.99219 h -6.91406 v 4.40625 h -0.30469 c -0.96094,-2.08593 -3.11719,-4.73437 -7.52344,-4.73437 -5.8125,0 -10.6875,4.52344 -10.6875,13.38281 0,8.67188 4.75782,12.77344 10.66407,12.77344 4.24218,0 6.30468,-2.15625 7.26562,-4.26563 h 0.53906 v 4.82813 c 0,3.44531 -2.17968,5.0625 -5.76562,5.0625 -3.42188,0 -5.03906,-1.52344 -5.69531,-3 l -6.04688,1.6875 c 1.14844,3.75 5.22656,6.42187 11.78906,6.42187 z m 0.11719,-16.07812 c -3.65625,0 -5.64844,-2.90625 -5.64844,-7.47656 0,-4.5 1.94532,-7.71094 5.64844,-7.71094 3.60938,0 5.625,3.07031 5.625,7.71094 0,4.6875 -2.03906,7.47656 -5.625,7.47656 z m 30.39844,6.23437 c 6.09375,0 10.26562,-2.83593 11.55469,-7.19531 l -6.375,-1.19531 c -0.75,2.01562 -2.60157,3.09375 -5.0625,3.09375 -3.53907,0 -5.92969,-2.20313 -6.09375,-6.49219 h 17.92968 v -1.96875 c 0,-8.95312 -5.46093,-13.28906 -12.30468,-13.28906 -7.66407,0 -12.58594,5.48437 -12.58594,13.57031 0,8.27344 4.92187,13.47656 12.9375,13.47656 z m -5.92969,-16.19531 c 0.28125,-3.23437 2.29688,-5.55469 5.64844,-5.55469 3.25781,0 5.10937,2.13282 5.46094,5.55469 z m 34.05469,25.47656 h 7.03125 v -13.99218 h 0.21094 c 0.98437,2.10937 3.14062,4.64062 7.42971,4.64062 6.0468,0 10.664,-4.78125 10.664,-13.5 0,-8.95312 -4.8047,-13.47656 -10.6172,-13.47656 -4.45308,0 -6.51558,2.64844 -7.47651,4.73437 h -0.32813 v -4.40625 h -6.91406 z m 12.5156,-15 c -3.58591,0 -5.64841,-3.14062 -5.64841,-7.875 0,-4.75781 2.03906,-7.82812 5.64841,-7.82812 3.6797,0 5.625,3.23437 5.625,7.82812 0,4.61719 -1.9687,7.875 -5.625,7.875 z m 25.5235,5.71875 c 3.8672,0 6.3984,-1.71093 7.664,-4.14843 H 1035 V 450 h 6.6563 v -17.64844 c 0,-6.35156 -5.4844,-8.88281 -11.1094,-8.88281 -5.8594,0 -10.0782,2.60156 -11.4141,7.14844 l 6.4453,1.07812 c 0.5625,-1.6875 2.2266,-3.02344 4.9453,-3.02344 2.625,0 4.1016,1.26563 4.1016,3.49219 v 0.11719 c 0,1.71094 -1.8516,1.89844 -6.3516,2.34375 -5.1562,0.49219 -9.8906,2.17969 -9.8906,8.03906 0,5.17969 3.7266,7.85156 8.7188,7.85156 z m 1.9922,-4.94531 c -2.3204,0 -3.961,-1.05469 -3.961,-3.09375 0,-2.10937 1.7344,-3.11719 4.336,-3.49219 1.5468,-0.21093 4.3359,-0.58593 5.2031,-1.19531 v 2.83594 c 0,2.76562 -2.2969,4.94531 -5.5781,4.94531 z m 31.5703,-21.77344 h -4.8985 v -6.23437 h -7.0312 v 6.23437 h -3.6094 v 5.36719 h 3.6094 v 13.78125 c 0,4.80469 2.8594,7.42969 8.1094,7.42969 1.4062,0 2.9765,-0.16406 4.5468,-0.63281 l -1.0078,-5.27344 c -0.5156,0.14062 -1.6875,0.30469 -2.2265,0.30469 -1.711,0 -2.3907,-0.77344 -2.3907,-2.4375 v -13.17188 h 4.8985 z m 17.0625,0 h -4.8985 v -6.23437 h -7.0312 v 6.23437 h -3.6094 v 5.36719 h 3.6094 v 13.78125 c 0,4.80469 2.8594,7.42969 8.1094,7.42969 1.4062,0 2.9765,-0.16406 4.5468,-0.63281 l -1.0078,-5.27344 c -0.5156,0.14062 -1.6875,0.30469 -2.2265,0.30469 -1.711,0 -2.3907,-0.77344 -2.3907,-2.4375 v -13.17188 h 4.8985 z m 15.9375,26.71875 c 6.0937,0 10.2656,-2.83593 11.5547,-7.19531 l -6.375,-1.19531 c -0.75,2.01562 -2.6016,3.09375 -5.0625,3.09375 -3.5391,0 -5.9297,-2.20313 -6.0938,-6.49219 h 17.9297 v -1.96875 c 0,-8.95312 -5.4609,-13.28906 -12.3047,-13.28906 -7.6641,0 -12.5859,5.48437 -12.5859,13.57031 0,8.27344 4.9218,13.47656 12.9375,13.47656 z m -5.9297,-16.19531 c 0.2812,-3.23437 2.2969,-5.55469 5.6484,-5.55469 3.2578,0 5.1094,2.13282 5.461,5.55469 z M 1110.4219,450 h 7.0312 v -14.90625 c 0,-3.25781 2.3672,-5.48438 5.6016,-5.48438 1.0312,0 2.4141,0.16407 3.0469,0.35157 v -6.28125 c -0.6328,-0.14063 -1.5469,-0.23438 -2.2735,-0.23438 -2.9531,0 -5.3672,1.6875 -6.3281,4.92188 h -0.2812 v -4.57032 h -6.7969 z m 26.9297,-15.16406 c 0,-3.46875 2.0859,-5.48438 5.0859,-5.48438 2.9531,0 4.7344,1.94531 4.7344,5.20313 V 450 h 7.0312 v -16.66406 c 0,-6.14063 -3.5625,-9.86719 -9,-9.86719 -4.0312,0 -6.6797,2.08594 -8.1562,5.74219 l -0.094,-5.41407 h -6.6328 V 450 h 7.0313 z m 33.2578,15.67968 c 6.8672,0 11.7187,-3.44531 11.7187,-8.60156 0,-3.72656 -2.4375,-6.04687 -7.5,-7.07812 l -4.7109,-0.9375 c -2.4844,-0.51563 -3.375,-1.42969 -3.375,-2.74219 0,-1.57031 1.7812,-2.64844 4.0781,-2.64844 2.5547,0 4.0313,1.26563 4.5938,3.04688 l 6.2343,-1.10157 c -0.9843,-4.26562 -4.7109,-6.98437 -10.9218,-6.98437 -6.6328,0 -11.0157,3.09375 -11.0157,8.13281 0,3.91406 2.4844,6.39844 7.5469,7.42969 l 4.5235,0.9375 c 2.2968,0.46875 3.375,1.3125 3.375,2.69531 0,1.57031 -1.6641,2.69531 -4.336,2.69531 -2.8828,0 -4.5703,-1.19531 -5.25,-3.65625 l -6.539,1.125 c 0.914,4.875 5.25,7.6875 11.5781,7.6875 z"
     id="text3"
     style="font-weight:700;font-size:48px;font-family:Inter;fill:#111111"
     aria-label="Grammar markup &amp; reusable language patterns" />
  <path
     d="m 87.741211,516.36621 c 5.126953,0 8.085937,-2.69531 8.085937,-6.40137 0,-3.94043 -3.500976,-5.43457 -6.284179,-6.15234 l -2.124024,-0.55664 c -1.669922,-0.43945 -3.925781,-1.21582 -3.925781,-3.28125 0,-1.8457 1.669922,-3.19336 4.321289,-3.19336 2.475586,0 4.248047,1.14258 4.467774,3.13477 h 3.251953 c -0.102539,-3.47168 -3.164063,-6.03516 -7.646485,-6.03516 -4.394531,0 -7.734375,2.50488 -7.734375,6.28418 0,2.98828 2.109375,4.81933 5.683594,5.77148 l 2.548828,0.70313 c 2.34375,0.62988 4.145508,1.37695 4.145508,3.28125 0,2.10937 -2.036133,3.51562 -4.804688,3.51562 -2.519531,0 -4.628906,-1.11328 -4.819335,-3.50097 h -3.354493 c 0.205078,3.98437 3.28125,6.43066 8.188477,6.43066 z m 18.867189,-0.0293 c 3.50098,0 6.00586,-1.71386 6.78223,-4.26269 l -3.03223,-0.71777 c -0.57129,1.52343 -1.91895,2.31445 -3.7207,2.31445 -2.68067,0 -4.49707,-1.71387 -4.61426,-4.87793 h 11.61621 v -1.14258 c 0,-5.90332 -3.57422,-8.23242 -7.30957,-8.23242 -4.58496,0 -7.543947,3.47168 -7.543947,8.51074 0,5.08301 2.988277,8.4082 7.822267,8.4082 z m -4.57031,-9.94629 c 0.17578,-2.35839 1.72851,-4.30664 4.30664,-4.30664 2.47558,0 3.86718,1.72852 4.10156,4.30664 z m 22.19238,9.94629 c 3.50098,0 6.00586,-1.71386 6.78223,-4.26269 l -3.03223,-0.71777 c -0.57129,1.52343 -1.91895,2.31445 -3.7207,2.31445 -2.68067,0 -4.49707,-1.71387 -4.61426,-4.87793 h 11.61621 v -1.14258 c 0,-5.90332 -3.57422,-8.23242 -7.30957,-8.23242 -4.58496,0 -7.54395,3.47168 -7.54395,8.51074 0,5.08301 2.98828,8.4082 7.82227,8.4082 z m -4.57031,-9.94629 c 0.17578,-2.35839 1.72851,-4.30664 4.30664,-4.30664 2.47558,0 3.86718,1.72852 4.10156,4.30664 z m 26.35254,-12.21679 h -3.22266 V 516 h 3.22266 z m 8.92089,22.19238 c 2.65137,0 4.20411,-1.33301 4.83399,-2.60742 h 0.16113 V 516 h 3.12012 v -10.86914 c 0,-4.73145 -3.76465,-5.71289 -6.40137,-5.71289 -2.91504,0 -5.66894,1.14258 -6.78223,4.07226 l 3.03223,0.79102 c 0.4541,-1.11328 1.65527,-2.24121 3.79395,-2.24121 2.05078,0 3.13476,1.05469 3.13476,2.87109 v 0.0879 c 0,1.15723 -1.24512,1.14258 -4.13086,1.4795 -3.09082,0.35156 -6.29883,1.17187 -6.29883,4.89257 0,3.22266 2.417,4.99512 5.53711,4.99512 z m 0.71778,-2.59277 c -1.80176,0 -3.09082,-0.80567 -3.09082,-2.3584 0,-1.68457 1.49414,-2.29981 3.31054,-2.54883 0.9961,-0.13184 3.48633,-0.39551 3.96973,-0.86426 v 2.09473 c 0,1.91894 -1.56738,3.67676 -4.18945,3.67676 z m 14.95605,-7.47071 c 0,-2.59277 1.61133,-4.07226 3.8086,-4.07226 2.13867,0 3.45703,1.40625 3.45703,3.76465 V 516 h 3.22265 v -10.40039 c 0,-4.04297 -2.22656,-6.18164 -5.5664,-6.18164 -2.31446,0 -4.02832,1.04004 -5.05371,3.35449 l -0.0147,-3.14941 h -3.07617 V 516 h 3.22265 z m 21.67969,16.17188 c 4.18945,0 7.39746,-1.93359 7.39746,-6.24024 v -16.61132 h -3.14941 v 2.66601 h -0.23438 c -0.57129,-1.02539 -1.72851,-2.87109 -4.74609,-2.87109 -3.94043,0 -6.88477,3.10547 -6.88477,8.33496 0,5.22949 2.98828,7.99805 6.84082,7.99805 2.98828,0 4.11621,-1.65528 4.6875,-2.72461 h 0.27832 v 3.19336 c 0,2.51953 -1.71386,3.66211 -4.2041,3.66211 -2.63672,0 -3.66211,-1.30372 -4.24805,-2.24122 l -2.69531,1.27442 c 0.92285,1.97754 3.16406,3.55957 6.95801,3.55957 z m -0.0293,-9.4043 c -2.8125,0 -4.29199,-2.16797 -4.29199,-5.36133 0,-3.12011 1.43555,-5.55175 4.29199,-5.55175 2.76856,0 4.2334,2.2705 4.2334,5.55175 0,3.3545 -1.50879,5.36133 -4.2334,5.36133 z m 17.34375,3.13477 c 2.25586,0 4.01367,-1.01074 5.03906,-3.38379 L 214.65527,516 h 3.09082 v -16.37695 h -3.2373 v 9.69726 c 0,2.59278 -1.62598,4.07227 -3.80859,4.07227 -2.13868,0 -3.45704,-1.40625 -3.45704,-3.76465 v -10.00488 h -3.22265 v 10.40039 c 0,4.04297 2.24121,6.18164 5.58105,6.18164 z m 17.05078,0.16113 c 2.65137,0 4.20411,-1.33301 4.83399,-2.60742 h 0.16113 V 516 h 3.12012 v -10.86914 c 0,-4.73145 -3.76465,-5.71289 -6.40137,-5.71289 -2.91504,0 -5.66894,1.14258 -6.78223,4.07226 l 3.03223,0.79102 c 0.4541,-1.11328 1.65527,-2.24121 3.79395,-2.24121 2.05078,0 3.13476,1.05469 3.13476,2.87109 v 0.0879 c 0,1.15723 -1.24512,1.14258 -4.13086,1.4795 -3.09082,0.35156 -6.29883,1.17187 -6.29883,4.89257 0,3.22266 2.417,4.99512 5.53711,4.99512 z m 0.71778,-2.59277 c -1.80176,0 -3.09082,-0.80567 -3.09082,-2.3584 0,-1.68457 1.49414,-2.29981 3.31054,-2.54883 0.9961,-0.13184 3.48633,-0.39551 3.96973,-0.86426 v 2.09473 c 0,1.91894 -1.56738,3.67676 -4.18945,3.67676 z m 18.58886,8.70117 c 4.18946,0 7.39747,-1.93359 7.39747,-6.24024 v -16.61132 h -3.14942 v 2.66601 h -0.23437 c -0.57129,-1.02539 -1.72852,-2.87109 -4.7461,-2.87109 -3.94043,0 -6.88476,3.10547 -6.88476,8.33496 0,5.22949 2.98828,7.99805 6.84082,7.99805 2.98828,0 4.11621,-1.65528 4.6875,-2.72461 h 0.27832 v 3.19336 c 0,2.51953 -1.71387,3.66211 -4.2041,3.66211 -2.63672,0 -3.66211,-1.30372 -4.24805,-2.24122 l -2.69531,1.27442 c 0.92285,1.97754 3.16406,3.55957 6.958,3.55957 z m -0.0293,-9.4043 c -2.8125,0 -4.29199,-2.16797 -4.29199,-5.36133 0,-3.12011 1.43554,-5.55175 4.29199,-5.55175 2.76855,0 4.2334,2.2705 4.2334,5.55175 0,3.3545 -1.50879,5.36133 -4.2334,5.36133 z m 18.82324,3.2666 c 3.50098,0 6.00586,-1.71386 6.78223,-4.26269 l -3.03223,-0.71777 c -0.57129,1.52343 -1.91895,2.31445 -3.7207,2.31445 -2.68067,0 -4.49707,-1.71387 -4.61426,-4.87793 h 11.61621 v -1.14258 c 0,-5.90332 -3.57422,-8.23242 -7.30957,-8.23242 -4.58496,0 -7.54395,3.47168 -7.54395,8.51074 0,5.08301 2.98829,8.4082 7.82227,8.4082 z m -4.57031,-9.94629 c 0.17578,-2.35839 1.72851,-4.30664 4.30664,-4.30664 2.47558,0 3.86719,1.72852 4.10156,4.30664 z m 27.71484,9.97559 c 2.65137,0 4.2041,-1.33301 4.83399,-2.60742 h 0.16113 V 516 h 3.12012 v -10.86914 c 0,-4.73145 -3.76465,-5.71289 -6.40137,-5.71289 -2.91504,0 -5.66895,1.14258 -6.78223,4.07226 l 3.03223,0.79102 c 0.4541,-1.11328 1.65527,-2.24121 3.79394,-2.24121 2.05078,0 3.13477,1.05469 3.13477,2.87109 v 0.0879 c 0,1.15723 -1.24512,1.14258 -4.13086,1.4795 -3.09082,0.35156 -6.29883,1.17187 -6.29883,4.89257 0,3.22266 2.41699,4.99512 5.53711,4.99512 z m 0.71777,-2.59277 c -1.80175,0 -3.09082,-0.80567 -3.09082,-2.3584 0,-1.68457 1.49414,-2.29981 3.31055,-2.54883 0.99609,-0.13184 3.48633,-0.39551 3.96973,-0.86426 v 2.09473 c 0,1.91894 -1.56739,3.67676 -4.18946,3.67676 z m 17.60743,2.56347 c 3.99902,0 6.75293,-2.10937 6.75293,-5.09765 0,-2.27051 -1.43555,-3.73535 -4.46778,-4.42383 l -2.63672,-0.58594 c -1.80175,-0.41015 -2.53418,-1.05469 -2.53418,-2.13867 0,-1.23047 1.34766,-2.12402 3.12012,-2.12402 1.93359,0 2.85645,1.02539 3.28125,2.16797 l 2.88574,-0.62989 c -0.70312,-2.43164 -2.65136,-4.08691 -6.19629,-4.08691 -3.70605,0 -6.34277,1.94824 -6.34277,4.87793 0,2.34375 1.46484,3.83789 4.51172,4.52637 l 2.75391,0.62988 c 1.55273,0.35156 2.2998,1.02539 2.2998,2.06543 0,1.21582 -1.31836,2.21191 -3.39844,2.21191 -1.90429,0 -3.14941,-0.79101 -3.60351,-2.50488 l -3.03223,0.62988 c 0.58594,2.90039 3.04688,4.48242 6.60645,4.48242 z m 24.15527,0 c 3.99902,0 6.75293,-2.10937 6.75293,-5.09765 0,-2.27051 -1.43555,-3.73535 -4.46777,-4.42383 l -2.63672,-0.58594 c -1.80176,-0.41015 -2.53418,-1.05469 -2.53418,-2.13867 0,-1.23047 1.34765,-2.12402 3.12011,-2.12402 1.9336,0 2.85645,1.02539 3.28125,2.16797 l 2.88575,-0.62989 c -0.70313,-2.43164 -2.65137,-4.08691 -6.19629,-4.08691 -3.70606,0 -6.34278,1.94824 -6.34278,4.87793 0,2.34375 1.46485,3.83789 4.51172,4.52637 l 2.75391,0.62988 c 1.55273,0.35156 2.2998,1.02539 2.2998,2.06543 0,1.21582 -1.31836,2.21191 -3.39843,2.21191 -1.9043,0 -3.14942,-0.79101 -3.60352,-2.50488 l -3.03223,0.62988 c 0.58594,2.90039 3.04688,4.48242 6.60645,4.48242 z m 17.28516,-16.71386 h -3.26661 v -3.89649 h -3.22265 v 3.89649 h -2.3877 v 2.62207 h 2.3877 v 9.59472 c 0,2.78321 1.71387,4.37989 4.6875,4.37989 0.74707,0 1.56738,-0.10254 2.25586,-0.33692 l -0.57129,-2.57812 c -0.39551,0.0879 -1.02539,0.17578 -1.36231,0.17578 -1.27441,0 -1.78711,-0.58594 -1.78711,-1.9043 v -9.33105 h 3.26661 z M 350.87109,516 h 3.22266 v -9.94629 c 0,-2.15332 1.64062,-3.67676 3.89648,-3.67676 0.67383,0 1.4502,0.11719 1.68457,0.17578 v -3.07617 c -0.33691,-0.0439 -0.95214,-0.0879 -1.3623,-0.0879 -1.91895,0 -3.54492,1.08399 -4.14551,2.8711 h -0.17578 v -2.63672 h -3.12012 z m 17.18262,0.20508 c 2.25586,0 4.01367,-1.01074 5.03906,-3.38379 L 373.10742,516 h 3.09082 v -16.37695 h -3.2373 v 9.69726 c 0,2.59278 -1.62598,4.07227 -3.8086,4.07227 -2.13867,0 -3.45703,-1.40625 -3.45703,-3.76465 v -10.00488 h -3.22265 v 10.40039 c 0,4.04297 2.24121,6.18164 5.58105,6.18164 z m 19.35059,0.13183 c 3.44238,0 6.1084,-1.86035 6.89941,-4.95117 l -3.04687,-0.73242 c -0.43946,1.77246 -1.80176,2.95898 -3.83789,2.95898 -2.95899,0 -4.37989,-2.59277 -4.37989,-5.71289 0,-3.16406 1.4209,-5.75683 4.37989,-5.75683 2.00683,0 3.33984,1.15722 3.77929,2.84179 l 3.06153,-0.73242 c -0.80567,-3.03222 -3.45704,-4.83398 -6.85547,-4.83398 -4.61426,0 -7.64649,3.38379 -7.64649,8.48144 0,5.05371 3.03223,8.4375 7.64649,8.4375 z m 17.43164,-16.71386 h -3.2666 v -3.89649 h -3.22266 v 3.89649 h -2.3877 v 2.62207 h 2.3877 v 9.59472 c 0,2.78321 1.71387,4.37989 4.6875,4.37989 0.74707,0 1.56738,-0.10254 2.25586,-0.33692 l -0.57129,-2.57812 c -0.39551,0.0879 -1.02539,0.17578 -1.3623,0.17578 -1.27442,0 -1.78711,-0.58594 -1.78711,-1.9043 v -9.33105 h 3.2666 z m 8.78906,16.58203 c 2.25586,0 4.01367,-1.01074 5.03906,-3.38379 L 418.67871,516 h 3.09082 v -16.37695 h -3.2373 v 9.69726 c 0,2.59278 -1.62598,4.07227 -3.8086,4.07227 -2.13867,0 -3.45703,-1.40625 -3.45703,-3.76465 v -10.00488 h -3.22265 v 10.40039 c 0,4.04297 2.24121,6.18164 5.58105,6.18164 z M 426.09082,516 h 3.22266 v -9.94629 c 0,-2.15332 1.64062,-3.67676 3.89648,-3.67676 0.67383,0 1.4502,0.11719 1.68457,0.17578 v -3.07617 c -0.33691,-0.0439 -0.95215,-0.0879 -1.3623,-0.0879 -1.91895,0 -3.54493,1.08399 -4.14551,2.8711 h -0.17578 v -2.63672 h -3.12012 z m 18.09082,0.33691 c 3.50098,0 6.00586,-1.71386 6.78223,-4.26269 l -3.03223,-0.71777 c -0.57129,1.52343 -1.91894,2.31445 -3.7207,2.31445 -2.68067,0 -4.49707,-1.71387 -4.61426,-4.87793 h 11.61621 v -1.14258 c 0,-5.90332 -3.57422,-8.23242 -7.30957,-8.23242 -4.58496,0 -7.54395,3.47168 -7.54395,8.51074 0,5.08301 2.98829,8.4082 7.82227,8.4082 z m -4.57031,-9.94629 c 0.17578,-2.35839 1.72851,-4.30664 4.30664,-4.30664 2.47558,0 3.86719,1.72852 4.10156,4.30664 z m 17.51953,9.82911 c 1.20117,0 2.15332,-0.95215 2.15332,-2.15332 0,-1.21582 -0.95215,-2.16797 -2.15332,-2.16797 -1.21582,0 -2.16797,0.95215 -2.16797,2.16797 0,1.20117 0.95215,2.15332 2.16797,2.15332 z"
     id="text4"
     style="font-weight:500;font-size:30px;font-family:Inter;fill:#5b5b57"
     aria-label="See language as structure." />
</svg>
