<?xml version="1.0" encoding="UTF-8" standalone="no"?>
<svg
   width="1700"
   height="400"
   viewBox="0 0 1700 400"
   version="1.1"
   id="svg2"
   xmlns="http://www.w3.org/2000/svg"
   xmlns:svg="http://www.w3.org/2000/svg">
  <defs
     id="defs2" />
  <g
     transform="translate(40 0)"
     id="g2">
    <path
       d="m 11.015625,278 h 46.816406 v -66.09375 c 0,-12.62207 -1.147461,-40.96436 -1.606445,-65.29053 5.622559,25.1294 12.62207,51.86524 16.75293,65.29053 L 93.173828,278 h 38.554692 l 19.85107,-66.09375 c 4.24561,-13.88428 11.47461,-42.11182 16.98242,-68.15918 -0.45898,24.8999 -1.72119,55.07813 -1.72119,68.15918 V 278 h 46.81641 V 107.02832 H 140.33447 L 125.18799,160.5 c -3.55713,12.50732 -8.7207,38.78418 -12.73682,61.15967 C 108.5498,199.28418 103.15674,173.00732 99.599609,160.5 L 84.223633,107.02832 H 11.015625 Z m 277.865235,2.29492 c 32.70264,0 54.2749,-14.45801 60.81543,-37.52197 l -40.62012,-5.9668 c -2.7539,7.11426 -9.86816,11.13037 -19.27734,11.13037 -12.73682,0 -21.22803,-7.57324 -21.80176,-23.4082 h 83.53516 v -10.55664 c 0,-40.84961 -25.01465,-65.86426 -63.79883,-65.86426 -39.70215,0 -64.94629,26.3916 -64.94629,66.09375 0,41.53809 24.8999,66.09375 66.09375,66.09375 z m -20.53955,-81.01074 c 1.37695,-12.16309 8.14697,-18.81836 19.85107,-18.81836 11.7041,0 18.47412,6.65527 19.85108,18.81836 z M 435.93555,149.71387 H 413.9043 v -30.52246 h -46.12793 v 30.52246 h -16.29395 v 33.50586 h 16.29395 v 57.83203 c 0,25.58838 14.6875,38.89892 43.48877,38.89892 8.26172,0 17.55615,-0.80322 28.11279,-3.67187 l -5.50781,-32.93213 c -1.72119,0.57373 -8.49121,1.4917 -11.24512,1.4917 -6.08154,0 -8.7207,-2.63916 -8.7207,-8.03223 v -53.58642 h 22.03125 z M 446.90137,278 h 46.12793 v -36.48926 l 6.88476,-8.7207 L 526.07617,278 h 52.55371 l -44.75097,-72.06055 43.60351,-56.22558 h -51.86523 l -30.98145,43.14453 h -1.60644 v -85.83008 h -46.12793 z m 169.31543,2.06543 c 16.63818,0 29.1455,-5.73731 36.94824,-20.19531 h 0.91797 V 278 h 43.14453 v -87.89551 c 0,-23.63769 -23.4082,-41.99707 -59.89746,-41.99707 -36.03028,0 -55.65186,17.55615 -59.20899,39.01367 l 41.53809,4.13086 c 1.4917,-7.80273 8.26172,-11.47461 16.98242,-11.47461 8.83545,0 14.45801,3.78662 14.45801,10.32715 v 0.45899 c 0,7.45849 -8.14697,9.75341 -29.60449,11.24511 -26.50635,1.95069 -47.0459,12.73682 -47.0459,40.84961 0,25.47364 17.09717,37.40723 41.76758,37.40723 z m 14.91699,-29.14551 c -7.80274,0 -13.31055,-3.78662 -13.31055,-11.01562 0,-6.54053 4.58985,-11.58936 15.37598,-13.31055 7.229,-1.14746 13.42529,-2.63916 18.35937,-4.58984 v 10.55664 c 0,11.7041 -9.98291,18.35937 -20.4248,18.35937 z"
       id="text1"
       style="font-weight:900;font-size:235px;font-family:Inter;letter-spacing:-9;fill:#111111"
       aria-label="Metka" />
    <path
       d="M850 84 H1520 Q1550 84 1568 112 L1620 196 Q1628 210 1620 224 L1568 308 Q1550 336 1520 336 H850 Q820 336 802 308 L750 224 Q742 210 750 196 L802 112 Q820 84 850 84 Z"
       fill="#FFC400"
       id="path1" />
    <path
       d="m 820.625,233.00781 105.66406,42.1875 v -35.74219 l -66.01562,-22.85156 v -1.36719 l 66.01562,-22.85156 v -35.9375 L 820.625,198.82812 Z m 177.15625,85.15625 c 34.47265,0 57.42185,-16.5039 57.42185,-47.26562 V 165.82031 h -38.8672 v 19.14063 h -0.7812 c -4.2969,-11.13282 -14.9414,-20.50782 -31.0547,-20.50782 -21.67969,0 -42.77344,16.50391 -42.77344,56.05469 0,37.69531 19.72656,53.125 42.96875,53.125 14.7461,0 24.80469,-6.34765 29.00389,-17.38281 h 2.832 v 18.55469 c 0,11.42578 -6.25,16.99218 -18.94526,16.99218 -10.0586,0 -16.69922,-3.51562 -17.8711,-9.375 L 945.24219,287.5 c 3.125,18.75 22.65625,30.66406 52.53906,30.66406 z m 1.36719,-72.46094 c -10.74219,0 -16.99219,-9.08203 -16.99219,-25.19531 0,-16.21094 6.25,-25.97656 16.99219,-25.97656 10.83986,0 17.38276,9.76562 17.38276,25.97656 0,15.82031 -6.5429,25.19531 -17.38276,25.19531 z M 1067.125,275 h 39.2578 v -56.83594 c 0,-12.5 8.4961,-20.70312 20.1172,-20.70312 4.0039,0 10.5469,0.58593 14.4531,1.95312 v -33.39844 c -3.125,-0.97656 -6.5429,-1.5625 -9.9609,-1.5625 -11.6211,0 -20.7031,6.83594 -24.6094,22.26563 h -1.1719 v -20.89844 h -38.0859 z m 104.1094,1.75781 c 14.1601,0 24.8047,-4.88281 31.4453,-17.1875 h 0.7812 V 275 h 36.7188 v -74.80469 c 0,-20.11719 -19.9219,-35.74219 -50.9766,-35.74219 -30.664,0 -47.3633,14.94141 -50.3906,33.20313 l 35.3516,3.51562 c 1.2695,-6.64062 7.0312,-9.76562 14.4531,-9.76562 7.5195,0 12.3047,3.22266 12.3047,8.78906 v 0.39063 c 0,6.34765 -6.9336,8.30078 -25.1953,9.57031 -22.5586,1.66016 -40.0391,10.83984 -40.0391,34.76562 0,21.67969 14.5508,31.83594 35.5469,31.83594 z m 12.6953,-24.80469 c -6.6406,0 -11.3281,-3.22265 -11.3281,-9.375 0,-5.5664 3.9062,-9.86328 13.0859,-11.32812 6.1523,-0.97656 11.4258,-2.24609 15.625,-3.90625 v 8.98437 c 0,9.96094 -8.4961,15.625 -17.3828,15.625 z M 1252.1016,275 h 39.2578 v -63.67188 c 0,-9.47265 4.8828,-15.23437 13.0859,-15.23437 8.0078,0 13.2813,5.76172 13.2813,15.23437 V 275 h 37.5 v -63.67188 c 0,-9.47265 4.9804,-15.23437 13.0859,-15.23437 8.1055,0 13.2813,5.76172 13.2813,15.23437 V 275 h 39.2578 v -73.63281 c 0,-22.36328 -14.3555,-36.91407 -35.1563,-36.91407 -14.5508,0 -28.8086,7.12891 -35.7422,26.36719 -5.957,-19.23828 -14.5508,-26.36719 -28.3203,-26.36719 -13.2812,0 -25.5859,6.73829 -31.7383,23.73047 l -1.9531,-22.36328 h -35.8398 z m 293.7578,-41.99219 v -34.17969 l -105.6641,-42.38281 v 35.9375 l 66.211,22.85156 v 1.36719 l -66.211,22.85156 v 35.74219 z"
       id="text2"
       style="font-weight:900;font-size:200px;font-family:Inter;letter-spacing:-8;fill:#111111"
       aria-label="&lt;gram&gt;" />
  </g>
</svg>
