<?xml version="1.0" encoding="UTF-8" standalone="no"?>
<svg
   width="1024"
   height="1024"
   viewBox="0 0 1024 1024"
   version="1.1"
   id="svg1"
   xmlns="http://www.w3.org/2000/svg"
   xmlns:svg="http://www.w3.org/2000/svg">
  <defs
     id="defs1" />
  <rect
     width="1024"
     height="1024"
     rx="220"
     fill="#111111"
     id="rect1" />
  <path
     d="M210 282 H814 Q850 282 872 316 L930 484 Q942 512 930 540 L872 708 Q850 742 814 742 H210 Q174 742 152 708 L94 540 Q82 512 94 484 L152 316 Q174 282 210 282 Z"
     fill="#FFC400"
     id="path1" />
  <path
     d="M 240.34375,571.51367 425.25586,645.3418 V 582.79297 L 309.72852,542.80273 v -2.39257 L 425.25586,500.41992 V 437.5293 l -184.91211,74.16992 z m 306.02344,149.02344 c 60.32715,0 100.48828,-28.88184 100.48828,-82.71484 V 453.93555 h -68.01758 v 33.49609 h -1.36719 c -7.51953,-19.48242 -26.14746,-35.88867 -54.3457,-35.88867 -37.93945,0 -74.85352,28.88183 -74.85352,98.0957 0,65.9668 34.52149,92.96875 75.19532,92.96875 25.80566,0 43.4082,-11.1084 50.75683,-30.41992 h 4.95606 v 32.4707 c 0,19.99512 -10.9375,29.73633 -33.1543,29.73633 -17.60254,0 -29.22363,-6.15234 -31.27441,-16.40625 l -60.32715,8.88672 c 5.46875,32.8125 39.64844,53.66211 91.94336,53.66211 z m 2.39258,-126.80664 c -18.79883,0 -29.73633,-15.89356 -29.73633,-44.0918 0,-28.36914 10.9375,-45.45898 29.73633,-45.45898 18.96972,0 30.41992,17.08984 30.41992,45.45898 0,27.68555 -11.4502,44.0918 -30.41992,44.0918 z m 312.85937,-22.2168 V 511.69922 L 676.70703,437.5293 v 62.89062 l 115.86914,39.99024 v 2.39257 l -115.86914,39.99024 v 62.54883 z"
     id="text1"
     style="font-weight:900;font-size:350px;font-family:Inter;letter-spacing:-18;fill:#111111"
     aria-label="&lt;g&gt;" />
</svg>
